<?xml version="1.0" encoding="UTF-8" standalone="no" ?>
<!DOCTYPE svg PUBLIC "-//W3C//DTD SVG 1.1//EN" "http://www.w3.org/Graphics/SVG/1.1/DTD/svg11.dtd">
<svg xmlns="http://www.w3.org/2000/svg" xmlns:xlink="http://www.w3.org/1999/xlink" version="1.1" width="500" height="500" viewBox="0 0 500 500" xml:space="preserve">
<desc>Created with Fabric.js 4.6.0</desc>
<defs>
</defs>
<g transform="matrix(-1 0 0 1 224.47 121.49)" id="AtJkfYEc-zy6AjsLAVlz0"  >
<path style="stroke: rgb(85,179,253); stroke-width: 6; stroke-dasharray: none; stroke-linecap: butt; stroke-dashoffset: 0; stroke-linejoin: miter; stroke-miterlimit: 4; fill: rgb(255,255,255); fill-rule: nonzero; opacity: 1;" vector-effect="non-scaling-stroke"  transform=" translate(-49.5, -49.5)" d="M 49.5 0 C 76.824 0 99 22.176 99 49.5 C 99 76.824 76.824 99 49.5 99 C 22.176 99 0 76.824 0 49.5 C 0 22.176 22.176 0 49.5 0 z" stroke-linecap="round" />
</g>
<g transform="matrix(-1 0 0 1 224.47 121.49)" id="HdWIx6j0ExRrnPbNJFIhU"  >
<path style="stroke: rgb(85,179,253); stroke-width: 6; stroke-dasharray: none; stroke-linecap: butt; stroke-dashoffset: 0; stroke-linejoin: miter; stroke-miterlimit: 4; fill: rgb(85,179,253); fill-rule: nonzero; opacity: 1;" vector-effect="non-scaling-stroke"  transform=" translate(-16.5, -16.5)" d="M 16.5 0 C 25.608 0 33 7.392 33 16.5 C 33 25.608 25.608 33 16.5 33 C 7.3919999999999995 33 0 25.608 0 16.5 C 0 7.3919999999999995 7.392 0 16.5 0 z" stroke-linecap="round" />
</g>
<g transform="matrix(-1 0 0 -1 224.47 71.49)" id="NTiq_pB4vu_5MVhbaRo7j"  >
<path style="stroke: rgb(85,179,253); stroke-width: 6; stroke-dasharray: none; stroke-linecap: butt; stroke-dashoffset: 0; stroke-linejoin: miter; stroke-miterlimit: 4; fill: rgb(255,255,255); fill-rule: nonzero; opacity: 1;" vector-effect="non-scaling-stroke"  transform=" translate(-8.5, -8.5)" d="M 8.5 0 C 13.192 0 17 3.808 17 8.5 C 17 13.192 13.192 17 8.5 17 C 3.808 17 0 13.192 0 8.5 C 0 3.808 3.808 0 8.5 0 z" stroke-linecap="round" />
</g>
<g transform="matrix(-1 0 0 -1 226.81 171.49)" id="InHiuHqJbeZy74UUEMU5Y"  >
<path style="stroke: rgb(85,179,253); stroke-width: 6; stroke-dasharray: none; stroke-linecap: butt; stroke-dashoffset: 0; stroke-linejoin: miter; stroke-miterlimit: 4; fill: rgb(255,255,255); fill-rule: nonzero; opacity: 1;" vector-effect="non-scaling-stroke"  transform=" translate(-8.5, -8.5)" d="M 8.5 0 C 13.192 0 17 3.808 17 8.5 C 17 13.192 13.192 17 8.5 17 C 3.808 17 0 13.192 0 8.5 C 0 3.808 3.808 0 8.5 0 z" stroke-linecap="round" />
</g>
</svg>